<?xml version="1.0" standalone="no"?>
<!DOCTYPE svg PUBLIC "-//W3C//DTD SVG 20010904//EN"
 "http://www.w3.org/TR/2001/REC-SVG-20010904/DTD/svg10.dtd">
<svg version="1.0" xmlns="http://www.w3.org/2000/svg"
 width="171.000000pt" height="161.000000pt" viewBox="0 0 171.000000 161.000000"
 preserveAspectRatio="xMidYMid meet">

<g transform="translate(0.000000,161.000000) scale(0.100000,-0.100000)"
fill="#000000" stroke="none">
<path d="M0 805 l0 -805 855 0 855 0 0 805 0 805 -855 0 -855 0 0 -805z m1460
630 l0 -45 -163 0 -162 0 -139 -225 c-76 -124 -142 -225 -145 -225 -3 0 -68
101 -144 225 l-139 225 -164 0 -164 0 0 45 0 45 610 0 610 0 0 -45z m-766
-790 c78 -121 147 -220 152 -222 5 -2 75 96 154 218 l145 221 3 -330 2 -329
47 -7 c25 -3 95 -6 154 -6 l109 0 0 -45 0 -45 -610 0 -610 0 0 45 0 45 113 0
c61 0 129 3 150 6 l37 7 0 335 c0 184 2 333 5 330 3 -2 70 -103 149 -223z"/>
</g>
</svg>
